PathFileType	4	(X/Y/Z)	C:\Users\ebm\Documents\Erivelton\Erivelton\propulsion1.trc
DataRate	CameraRate	NumFrames	NumMarkers	Units	OrigDataRate	OrigDataStartFrame	OrigNumFrames
150.00	150.00	      4	28	mm	150.00	887	      1182
Frame#	Time	IJ			PX			C7			T8			RAC			RAS			RPS			RAI			RPI			RLE			RME			RRS			RUS			R3M			R5M			LAC			LAS			LPS			LAI			LPI			LLE			LME			LRS			LUS			L3M			L5M			RW			LW			V_mid_elbow_r			V_mid_elbow_l			V_mid_wrist_r			V_mid_wrist_l			V_mid_trunk_low			V_mid_trunk_upp			
		X1	Y1	Z1	X2	Y2	Z2	X3	Y3	Z3	X4	Y4	Z4	X5	Y5	Z5	X6	Y6	Z6	X7	Y7	Z7	X8	Y8	Z8	X9	Y9	Z9	X10	Y10	Z10	X11	Y11	Z11	X12	Y12	Z12	X13	Y13	Z13	X14	Y14	Z14	X15	Y15	Z15	X16	Y16	Z16	X17	Y17	Z17	X18	Y18	Z18	X19	Y19	Z19	X20	Y20	Z20	X21	Y21	Z21	X22	Y22	Z22	X23	Y23	Z23	X24	Y24	Z24	X25	Y25	Z25	X26	Y26	Z26	X27	Y27	Z27	X28	Y28	Z28	

887	5.907	3993.08081	1016.67737	72.42465	3995.17041	842.24310	74.36542	3872.12451	1124.09778	74.29811	3773.69678	938.73352	81.25666	3919.32690	1071.68311	263.62619	3858.92065	921.78107	335.88980	3829.61230	964.39465	349.75446	3799.32520	872.04443	361.43716	3775.74756	914.24109	375.58163	3706.94019	862.36493	402.44748	3673.31641	848.09131	325.11520	3805.23145	617.77411	346.98697	3773.51001	608.24493	397.57596	3850.23193	557.13165	393.94449	3815.56714	542.10254	403.11490	3875.01196	1065.76270	-113.96552	3800.80811	939.97577	-193.70326	3762.39282	963.87659	-176.43054	3757.03979	880.23712	-227.24994	3712.11792	905.37109	-209.30615	3693.31226	835.93945	-244.68179	3667.25415	814.20923	-165.84898	3839.73779	622.08990	-192.24049	3807.65771	590.48077	-249.23932	3892.45239	569.35406	-258.05243	3859.42627	542.73792	-260.62961	3923.34058	294.21185	379.61450	3924.98853	301.11749	-248.98740	
888	5.913	4001.24634	1016.72461	72.59103	4003.48608	842.20807	74.39973	3880.17041	1123.96509	74.61824	3781.85718	938.66998	81.29713	3927.62305	1071.13733	264.01932	3868.45410	920.00146	335.75583	3838.64795	962.15460	350.00290	3809.71313	869.45764	361.48846	3784.74048	911.56799	376.52026	3717.28247	858.73712	402.66779	3684.01025	844.05725	325.24347	3819.39429	616.08716	346.72925	3788.40381	605.86163	397.42664	3867.17554	556.99719	393.77298	3832.71094	540.96210	403.41553	3883.21362	1065.81165	-113.89959	3810.60840	938.53748	-194.45087	3771.44897	961.72839	-177.24913	3767.95068	878.28101	-228.27937	3722.41040	902.45764	-210.61835	3705.18848	832.41595	-246.00984	3678.79102	810.66498	-167.53854	3855.48779	621.41443	-193.14046	3823.17529	589.26971	-250.54144	3908.81543	568.61530	-258.96722	3876.10474	541.97455	-261.47955	3931.01978	294.12247	379.65005	3932.96655	300.90808	-248.82896	
889	5.920	4009.53320	1016.75140	72.70770	4011.53735	842.11182	74.49900	3888.21875	1123.78613	74.79316	3790.14648	938.54803	81.36076	3936.19287	1070.49377	264.13467	3877.93921	918.13141	335.66135	3847.76294	959.89160	350.43219	3819.89038	866.78595	361.50601	3794.60645	908.46600	376.93829	3727.75049	854.95093	403.03741	3694.51660	839.74225	325.56754	3833.62402	614.17657	345.54474	3804.13770	603.84540	397.29596	3884.34692	557.65369	393.58481	3850.49976	540.73779	403.84979	3891.47388	1065.68799	-113.94134	3820.34570	937.01007	-195.26128	3780.82007	959.41187	-178.22041	3779.12329	876.13818	-229.63951	3733.07031	899.46631	-212.15211	3717.51025	829.53101	-247.94633	3690.64966	806.84869	-169.61688	3870.96313	620.46381	-194.05264	3839.50635	588.47192	-251.73990	3925.47559	567.71796	-260.05197	3892.49658	541.19629	-262.24005	3938.83252	294.00970	379.68088	3941.08203	300.58194	-248.85056	
890	5.927	4017.80542	1016.79889	72.86549	4019.62378	842.09497	74.46284	3896.35229	1123.27441	75.33811	3798.22632	938.63470	81.30913	3944.34766	1069.97717	264.66537	3887.42407	916.36926	335.63455	3856.90210	957.62433	350.86328	3830.12500	864.10419	361.52060	3804.34717	905.41449	377.37131	3738.35034	851.13672	403.54419	3705.00879	835.43640	326.05869	3847.70801	612.48322	344.69266	3819.99023	602.01904	397.04987	3901.25903	558.63550	393.80148	3868.17017	541.13684	404.50867	3899.67407	1065.54065	-113.94303	3830.34277	935.33295	-196.16757	3790.31714	957.03876	-179.49786	3790.45605	873.81079	-231.12115	3743.70337	896.31451	-213.87128	3729.81177	826.16986	-249.71465	3702.74561	802.89044	-171.85118	3886.45630	619.18207	-194.98407	3855.79492	587.47253	-253.04420	3942.27002	566.62976	-261.16083				3946.48218	293.97519	379.73694	3948.85986	300.55872	-248.86707	
